<?xml version="1.0" encoding="utf-8"?>
<!-- Generator: Adobe Illustrator 23.0.1, SVG Export Plug-In . SVG Version: 6.00 Build 0)  -->
<!DOCTYPE svg PUBLIC "-//W3C//DTD SVG 1.1//EN" "http://www.w3.org/Graphics/SVG/1.1/DTD/svg11.dtd" [
	<!ENTITY ns_extend "http://ns.adobe.com/Extensibility/1.0/">
	<!ENTITY ns_ai "http://ns.adobe.com/AdobeIllustrator/10.0/">
	<!ENTITY ns_graphs "http://ns.adobe.com/Graphs/1.0/">
	<!ENTITY ns_vars "http://ns.adobe.com/Variables/1.0/">
	<!ENTITY ns_imrep "http://ns.adobe.com/ImageReplacement/1.0/">
	<!ENTITY ns_sfw "http://ns.adobe.com/SaveForWeb/1.0/">
	<!ENTITY ns_custom "http://ns.adobe.com/GenericCustomNamespace/1.0/">
	<!ENTITY ns_adobe_xpath "http://ns.adobe.com/XPath/1.0/">
]>
<svg version="1.1"
	 id="Layer_1" xmlns:x="&ns_extend;" xmlns:i="&ns_ai;" xmlns:graph="&ns_graphs;" inkscape:version="0.92.4 (5da689c313, 2019-01-14)" sodipodi:docname="Grupo Energía Bogotá logo.svg" xmlns:cc="http://creativecommons.org/ns#" xmlns:dc="http://purl.org/dc/elements/1.1/" xmlns:inkscape="http://www.inkscape.org/namespaces/inkscape" xmlns:rdf="http://www.w3.org/1999/02/22-rdf-syntax-ns#" xmlns:sodipodi="http://sodipodi.sourceforge.net/DTD/sodipodi-0.dtd" xmlns:svg="http://www.w3.org/2000/svg"
	 xmlns="http://www.w3.org/2000/svg" xmlns:xlink="http://www.w3.org/1999/xlink" x="0px" y="0px" viewBox="0 0 9063 2642.9"
	 style="enable-background:new 0 0 9063 2642.9;" xml:space="preserve">
<style type="text/css">
	.st0{fill:#03AAA0;}
	.st1{fill:#B91738;}
	.st2{fill:#FFFFFF;}
</style>
<metadata  id="metadata135">
	<rdf:RDF>
		<cc:Work  rdf:about="">
			<dc:format>image/svg+xml</dc:format>
			<dc:type  rdf:resource="http://purl.org/dc/dcmitype/StillImage"></dc:type>
			<dc:title>Real Time logo</dc:title>
		</cc:Work>
	</rdf:RDF>
	<sfw  xmlns="&ns_sfw;">
		<slices></slices>
		<sliceSourceBounds  bottomLeftOrigin="true" height="2642.9" width="9063" x="-4480.1" y="-1307.1"></sliceSourceBounds>
	</sfw>
</metadata>
<g>
	<g>
		<path class="st0" d="M399.9,0C178.8,0,14.5,153.9,0,349.3v1945.3c13.9,187.1,164.5,336.2,352.2,348.4H4531V0H399.9z"/>
		<path class="st1" d="M8685.3,0H4531v2642.9h4178.8c196.6-12.7,352.3-175.9,353.1-375.6V376.3C9062.2,168.3,8893.5,0,8685.3,0z"/>
	</g>
	<g>
		<path class="st2" d="M3521,1047.6h-162.8c-11.8,0-21.3,9.8-21.3,21.6v68.1c-65.4-68.4-155.1-107.7-258.1-107.7
			c-218.7,0-399.9,189.4-399.9,439.3c0,248,181.1,437.5,399.9,437.5c103,0,192.7-39.4,258.1-107.7v68.1c0,12.1,9.5,21.6,21.3,21.6
			H3521c11.8,0,21.3-9.5,21.3-21.6v-797.4C3542.3,1057.3,3532.9,1047.6,3521,1047.6 M3111.7,1707c-119.3,0-215.5-102.7-215.5-236.5
			c0-137.3,96.2-241.8,215.5-241.8c119,0,215.2,107.7,215.2,241.8C3326.8,1601.1,3230.7,1707,3111.7,1707 M4126.6,1688.4
			c-0.6,0-0.9,0.3-1.5,0.3h-0.3l-17.5,1.2c-106,6.5-159.8-35.8-159.8-154.8V650.9c0-11.8-9.8-21.6-21.9-21.6h-173.5
			c-11.8,0-21.6,9.8-21.6,21.6v884.1c0,230,130.5,376.8,376.8,350.7l22.2-2.7l0.6-0.6c10.4-1.8,18.3-10.4,18.3-21V1710
			C4148.5,1698.1,4138.8,1688.4,4126.6,1688.4 M2136.1,1027.7c-236.5,0-431,199.2-431,442.5c0,243,194.5,439,431,439
			c196.5,0,339.5-102.4,396.6-256.9c0,0,0-0.3,0-0.6c1.2-2.4,1.8-5.3,1.8-8.3c0-11.5-9.2-20.7-20.7-21.3l-0.3-0.3h-188.5
			c-9.8,0-15.1,4.7-18.7,10.7c-35.5,61-103.9,87.3-171.7,87.3c-101.2,0-182.9-63.6-210.4-166.3h614.8c10.4,0,21-5.6,21.6-19.2
			C2582.1,1212.7,2379.7,1027.7,2136.1,1027.7 M1927.4,1377c30.8-98,109.2-159.8,207.2-159.8c103,0,184.4,61.9,210.7,159.8H1927.4z
			 M1645.9,1857.4h0.3l-0.6-0.6c-0.3-0.9-0.6-1.8-1.2-2.4l-235.3-407.3c122.5-57.1,195.7-176.7,195.7-326.2
			c0-222-137.3-365.6-373.8-365.6H775.7c-11.8,0-21.6,9.5-21.6,21.3v1089.8c0,11.8,9.8,21.6,21.6,21.6H948
			c12.1,0,21.6-9.8,21.6-21.6v-383.3h211.9l226.4,392.5c3.6,7.4,11,12.4,19.5,12.4h199.2c11.8,0,21.6-9.8,21.6-21.6
			C1648.3,1863.3,1647.4,1860,1645.9,1857.4 M1229.2,1285.8H969.6V956.1h259.6c99.7,0,160.1,50.6,160.1,164.9
			S1328.9,1285.8,1229.2,1285.8"/>
		<path class="st2" d="M5709.8,755.2h-779.6c-11.8,0-21.6,9.8-21.6,21.6v157.8c0,11.8,9.8,21.6,21.6,21.6h282.1v910.5
			c0,11.8,9.8,21.6,21.6,21.6h172.3c12.1,0,21.6-9.8,21.6-21.6V956.2h282.1c12.1,0,21.6-9.8,21.6-21.6V776.8
			C5731.4,765,5721.9,755.2,5709.8,755.2 M5990.4,1042.6h-172.3c-12.1,0-21.6,9.8-21.6,21.6v802.4c0,11.8,9.5,21.6,21.6,21.6h172.3
			c11.8,0,21.6-9.8,21.6-21.6v-802.4C6012,1052.4,6002.2,1042.6,5990.4,1042.6 M7031.1,1025.2c-93.8,0-170.5,39.7-223.2,103.6
			c-50.9-65.4-127.9-103.6-218.7-103.6c-79.6,0-143.3,34-188.8,89.4v-46.5c0-12.1-9.8-21.6-21.6-21.6h-164.3
			c-11.8,0-21.6,9.5-21.6,21.6v799.5c0.6,11.5,10.1,20.7,21.6,20.7h174c11.5,0,20.7-9.2,21.6-20.7v-508.2
			c0-73.7,52.1-129.9,126.1-129.9c111,0,122.2,91.8,122.2,129.9v508.2h0.3c0.3,11.5,10.1,20.7,21.3,20.7h174
			c11.5,0,21-9.2,21.6-20.7h0.3v-508.2c0-74,52.1-129.9,127-129.9c109.5,0,121.9,91.8,121.9,129.9v508.2h0.3
			c0.6,11.5,10.1,20.7,21.6,20.7h174v-0.3c10.9-0.9,19.2-9.5,19.8-20.4h0.3v-520.1C7341,1155.7,7227.3,1025.2,7031.1,1025.2
			 M7902.5,1026.4c-236.8,0-431,199.2-431,442.2c0,243.3,194.2,439.3,431,439.3c196.2,0,339.2-102.4,396.3-256.9
			c0.3,0,0-0.3,0.3-0.6c0.9-2.4,1.5-5.3,1.5-8.3c0-11.5-9.2-20.7-20.7-21.3l-0.3-0.3H8091c-9.8,0-15.1,4.7-18.6,10.7
			c-35.2,60.7-103.6,87.3-171.7,87.3c-101.2,0-182.9-63.6-210.4-166.4h615.1c10.1,0,20.7-5.9,21.3-19.2
			C8348.3,1211.4,8145.8,1026.4,7902.5,1026.4 M7693.5,1375.6c31.1-98,109.2-160.1,207.2-160.1c103,0,184.4,62.2,210.7,160.1H7693.5
			z M5990.4,755.2h-172.3c-12.1,0-21.6,9.8-21.6,21.6v138.8c0,11.8,9.5,21.6,21.6,21.6h172.3c11.8,0,21.6-9.8,21.6-21.6V776.8
			C6012,765,6002.2,755.2,5990.4,755.2"/>
	</g>
</g>
</svg>
