<?xml version="1.0" encoding="utf-8"?>
<!-- Generator: Adobe Illustrator 24.3.0, SVG Export Plug-In . SVG Version: 6.00 Build 0)  -->
<svg version="1.1" id="Camada_1" xmlns="http://www.w3.org/2000/svg" xmlns:xlink="http://www.w3.org/1999/xlink" x="0px" y="0px"
	 viewBox="0 0 1397.7 807.3" style="enable-background:new 0 0 1397.7 807.3;" xml:space="preserve">
<style type="text/css">
	.st0{fill:url(#SVGID_1_);}
	.st1{fill:#241C32;}
</style>
<g>
	<g>
		<linearGradient id="SVGID_1_" gradientUnits="userSpaceOnUse" x1="629.7244" y1="503.3725" x2="965.9363" y2="102.6908">
			<stop  offset="0.1484" style="stop-color:#2C4AC6"/>
			<stop  offset="0.9985" style="stop-color:#0087E5"/>
		</linearGradient>
		<path class="st0" d="M1076.4,195.3H874.4c-2.6,0-4-1.3-4.6-4L806.4,0l-62,191.4c-0.7,2.6-2,4-4.6,4H537.8l163,118.8
			c2,1.3,4,1.3,5.9,0c44.9-27.7,85.1-47.5,168.9-68.6c-76.6,59.4-151.8,126.7-213.8,204.6c-2,2.6-2.6,3.3-4,7.3l-17.8,54.8
			l163-118.1c2.6-2,4-2,6.6,0l163,118.1l-62-192.7c-0.7-2.6,0-4,2-5.3L1076.4,195.3z"/>
		<path class="st1" d="M1187.2,143.9h54.8c33,0,54.1,17.2,54.1,46.9c0,32.3-21.1,53.5-54.1,53.5h-54.8V143.9z M1281.6,309.5
			c56.8-7.3,103.6-56.1,103.6-118.1c0-80.5-54.8-124.7-143.2-124.7h-142.5v405.2h87.8V309.5l108.9,162.3h101.6L1281.6,309.5z"/>
		<polygon class="st1" points="304.9,66.7 304.9,146.5 394,146.5 394,471.9 483.1,471.9 483.1,146.5 572.2,146.5 572.2,66.7 		"/>
		<path class="st1" d="M139.9,215.8c-26.4-11.9-36.3-25.1-36.3-42.2c0-19.8,16.5-36.3,42.9-35.6c23.1,0.7,40.9,13.2,53.5,42.9
			l75.9-33.7c-21.1-54.1-64-85.8-133.3-85.8c-73.3,0-127.4,48.2-127.4,112.8c0,44.2,21.8,79.2,73.3,104.9l56.8,28.4
			c31.7,15.8,46.9,27.7,46.9,50.8c0,25.1-20.5,42.9-46.9,42.9c-28.4,0-54.1-15.8-66-51.5L0,372.9c18.5,66.7,73.3,105.6,144.5,105.6
			c77.2,0,136.6-49.5,136.6-120.8c0-54.8-29.7-91.1-86.5-116.8L139.9,215.8z"/>
	</g>
	<g>
		<path class="st1" d="M460.2,641.2h35.7v60.4h69.3v-60.4h35.7v162h-35.7v-70h-69.3v70h-35.7V641.2z"/>
		<path class="st1" d="M647.1,641.2h35.7v162h-35.7V641.2z"/>
		<path class="st1" d="M760.4,672.8h-46.2v-31.6h128.2v31.6h-46.2v130.4h-35.7V672.8z"/>
		<path class="st1" d="M954.2,680.8c-5.7-7.3-17.2-10.8-25.9-10.8c-10.1,0-24,4.6-24,16.7c0,29.5,74.6,10.5,74.6,67.3
			c0,36.2-29.1,53.3-62.5,53.3c-20.8,0-39.1-6.2-54.5-20.4l25.4-27.9c7.3,9.6,19.2,15.3,31.1,15.3c11.7,0,24.7-5.5,24.7-16.9
			c0-29.7-76-13.7-76-67.7c0-34.6,30-52.6,61.8-52.6c18.3,0,35.9,4.8,49.7,16.9L954.2,680.8z"/>
	</g>
</g>
</svg>
